<?xml version="1.0" encoding="iso-8859-1"?>
<!-- Uploaded to: SVG Repo, www.svgrepo.com, Generator: SVG Repo Mixer Tools -->
<svg fill="#000000" height="800px" width="800px" version="1.1" id="Layer_1" xmlns="http://www.w3.org/2000/svg" xmlns:xlink="http://www.w3.org/1999/xlink" 
	 viewBox="0 0 512 512" xml:space="preserve">
<g>
	<g>
		<g>
			<path d="M136.818,122.7c1.893,64.105,54.626,115.672,119.18,115.672c65.749,0,119.238-53.491,119.238-119.238
				c0-38.55-18.502-73.463-47.689-95.389c-77.66-58.342-193.473-2.982-190.741,98.64C136.809,122.49,136.816,122.596,136.818,122.7z
				 M326.886,80.96c-29.433,11.857-62.168,4.675-84.155-15.282c-0.29-0.312-0.585-0.625-0.898-0.92
				c-6.31-5.946-11.6-12.848-15.683-20.393C263.564,29.365,307.141,44.44,326.886,80.96z M233.451,107.05
				c29.893,18.673,67.678,24.18,103.066,11.648c0.001,0.146,0.01,0.289,0.01,0.435c0,44.404-36.125,80.529-80.528,80.529
				c-32.922,0-61.277-19.868-73.747-48.236C202.334,140.556,219.825,125.388,233.451,107.05z M194.522,67.202
				c2.933,4.956,6.211,9.667,9.805,14.108c-7.758,11.075-17.348,20.721-28.3,28.511C177.912,93.538,184.58,78.955,194.522,67.202z"
				/>
			<path d="M256,253.64c-97.856,0-177.617,79.582-177.617,177.617v61.388c0,10.689,8.666,19.355,19.355,19.355h316.523
				c10.689,0,19.355-8.666,19.355-19.355v-61.388C433.617,333.493,354.209,253.64,256,253.64z M236.645,473.288H117.094
				c0-45.07-5.652-95.288,42.325-141.764l77.226,110.663V473.288z M190.691,308.693c14.057-7.52,29.551-12.691,45.954-14.988v43.752
				c0,10.689,8.666,19.355,19.355,19.355c10.689,0,19.355-8.666,19.355-19.355v-43.752c16.403,2.297,31.896,7.466,45.954,14.988
				L256,402.279L190.691,308.693z M394.906,473.289H275.355v-31.102l77.226-110.663C400.44,377.885,394.906,427.929,394.906,473.289
				z"/>
		</g>
	</g>
</g>
</svg>